# xmcd
#
# Track frame offsets:
#	150
#	13105
#	32498
#	56734
#	90281
#	115702
#	134129
#	147193
#	180083
#	206149
#
# Disc length: 2941 seconds
#
# Revision: 0
# Processed by: cddbd v1.5.2PL0 Copyright (c) Steve Scherf et al.
# Submitted via: audiograbber 1.83.01
#
DISCID=820b7b0a
DTITLE=Eli Cook - Moonshine Mojo
DYEAR=2004
DGENRE=Blues
TTITLE0=Easy Boogie
TTITLE1=Crosscut Saw
TTITLE2=Ride On, Josephine
TTITLE3=Sweet Anita
TTITLE4=Pink Cadillac
TTITLE5=Leave My Little Girl Alone
TTITLE6=Kicky
TTITLE7=Mannish Boy
TTITLE8=Little Wing
TTITLE9=Huckle Up Baby
EXTD=
EXTT0=
EXTT1=
EXTT2=
EXTT3=
EXTT4=
EXTT5=
EXTT6=
EXTT7=
EXTT8=
EXTT9=
PLAYORDER=
